<svg width="29" height="28" viewBox="0 0 29 28" fill="none" xmlns="http://www.w3.org/2000/svg">
<path d="M4.83325 11.0321C4.83325 10.1948 4.83325 9.77609 4.99228 9.40149C5.1513 9.0269 5.45249 8.7361 6.05487 8.15449L7.29577 6.95638C7.86969 6.40225 8.15665 6.12518 8.51707 5.97958C8.87749 5.83398 9.27637 5.83398 10.0742 5.83398H18.9257C19.7235 5.83398 20.1224 5.83398 20.4828 5.97958C20.8432 6.12518 21.1301 6.40225 21.7041 6.95638L22.945 8.15449C23.5473 8.7361 23.8485 9.0269 24.0076 9.40149C24.1666 9.77609 24.1666 10.1948 24.1666 11.0321V19.334C24.1666 21.2196 24.1666 22.1624 23.5808 22.7482C22.995 23.334 22.0522 23.334 20.1666 23.334H8.83325C6.94763 23.334 6.00482 23.334 5.41904 22.7482C4.83325 22.1624 4.83325 21.2196 4.83325 19.334V11.0321Z" stroke="#33363F" stroke-width="2"/>
<path d="M4.83325 11.666H24.1666" stroke="#33363F" stroke-width="2" stroke-linecap="round"/>
<path d="M17.9233 10.5L11.0761 10.5C10.7913 10.5 10.6489 10.5 10.5604 10.5854C10.4719 10.6709 10.4719 10.8083 10.4719 11.0833L10.4719 15.9444C10.4719 16.8367 10.4719 17.2829 10.5914 17.5227C10.8582 18.0579 11.499 18.3142 12.0797 18.1178C12.3398 18.0299 12.6665 17.7144 13.32 17.0835C13.6227 16.7913 13.774 16.6451 13.9349 16.563C14.2883 16.3826 14.7112 16.3826 15.0645 16.563C15.2254 16.6451 15.3768 16.7913 15.6794 17.0835C16.3329 17.7144 16.6596 18.0299 16.9197 18.1178C17.5004 18.3142 18.1412 18.0579 18.408 17.5227C18.5275 17.2829 18.5275 16.8367 18.5275 15.9444V11.0833C18.5275 10.8083 18.5275 10.6709 18.439 10.5854C18.3505 10.5 18.2081 10.5 17.9233 10.5Z" fill="#33363F"/>
</svg>
